<?xml version="1.0" encoding="utf-8"?>
<!-- Generator: Adobe Illustrator 16.0.0, SVG Export Plug-In . SVG Version: 6.00 Build 0)  -->
<!DOCTYPE svg PUBLIC "-//W3C//DTD SVG 1.1//EN" "http://www.w3.org/Graphics/SVG/1.1/DTD/svg11.dtd">
<svg version="1.1" id="レイヤー_1" xmlns="http://www.w3.org/2000/svg" xmlns:xlink="http://www.w3.org/1999/xlink" x="0px"
	 y="0px" width="100px" height="100px" viewBox="0 0 100 100" enable-background="new 0 0 100 100" xml:space="preserve">
<rect fill="#F1F1F1" width="50" height="50"/>
<rect x="5" y="5" fill="#FFFFFF" width="40" height="40"/>
<rect x="50" fill="#F1F1F1" width="50" height="50"/>
<rect x="55" y="5" fill="#FFFFFF" width="40" height="40"/>
<rect x="17.736" y="33.125" transform="matrix(0.7071 -0.7071 0.7071 0.7071 -14.7491 35.6078)" fill="#F1F1F1" width="35.743" height="4.965"/>
<rect x="-3.479" y="33.125" transform="matrix(0.7071 0.7071 -0.7071 0.7071 29.3937 0.2523)" fill="#F1F1F1" width="35.743" height="4.965"/>
<rect x="-3.479" y="11.91" transform="matrix(-0.7071 0.7071 -0.7071 -0.7071 34.7466 14.3922)" fill="#F1F1F1" width="35.743" height="4.965"/>
<rect x="17.736" y="11.91" transform="matrix(-0.7071 -0.7071 0.7071 -0.7071 50.6098 49.7484)" fill="#F1F1F1" width="35.743" height="4.965"/>
<rect x="50" y="50" fill="#F1F1F1" width="50" height="50"/>
<rect x="55" y="55.002" fill="#FFFFFF" width="40" height="39.998"/>
<rect x="0" y="50" fill="#F1F1F1" width="50" height="50"/>
<rect x="5" y="55.002" fill="#FFFFFF" width="40" height="39.998"/>
<rect x="46.521" y="61.911" transform="matrix(-0.7071 0.7071 -0.7071 -0.7071 155.4581 64.3951)" fill="#F1F1F1" width="35.743" height="4.965"/>
<rect x="67.737" y="61.912" transform="matrix(-0.7071 -0.7071 0.7071 -0.7071 100.608 170.4623)" fill="#F1F1F1" width="35.742" height="4.965"/>
<rect x="67.736" y="83.126" transform="matrix(0.7071 -0.7071 0.7071 0.7071 -35.4604 85.61)" fill="#F1F1F1" width="35.743" height="4.966"/>
<rect x="46.52" y="83.127" transform="matrix(0.7071 0.7071 -0.7071 0.7071 79.3946 -20.4578)" fill="#F1F1F1" width="35.743" height="4.964"/>
</svg>
